<svg width="128" height="128" viewBox="0 0 128 128" xmlns="http://www.w3.org/2000/svg">
  <!-- 1nsp3ct0rG4dg3t Icon Design -->
  <defs>
    <linearGradient id="grad1" x1="0%" y1="0%" x2="100%" y2="100%">
      <stop offset="0%" style="stop-color:#007bff;stop-opacity:1" />
      <stop offset="100%" style="stop-color:#0056b3;stop-opacity:1" />
    </linearGradient>
  </defs>

  <!-- Background circle -->
  <circle cx="64" cy="64" r="56" fill="url(#grad1)" stroke="#ffffff" stroke-width="4"/>

  <!-- Magnifying glass body -->
  <circle cx="50" cy="50" r="20" fill="none" stroke="#ffffff" stroke-width="4"/>

  <!-- Magnifying glass handle -->
  <line x1="65" y1="65" x2="80" y2="80" stroke="#ffffff" stroke-width="4" stroke-linecap="round"/>

  <!-- Gear/Inspector symbol inside magnifying glass -->
  <g transform="translate(50,50)">
    <!-- Gear teeth -->
    <path d="M-8,-12 L-4,-12 L-4,-8 L4,-8 L4,-12 L8,-12 L12,-8 L12,-4 L8,-4 L8,4 L12,4 L12,8 L8,8 L4,12 L-4,12 L-8,8 L-8,4 L-12,4 L-12,-4 L-8,-4 Z"
          fill="none" stroke="#ffffff" stroke-width="2"/>
    <!-- Center circle -->
    <circle cx="0" cy="0" r="4" fill="#ffffff"/>
  </g>

  <!-- Debug symbol (brackets) -->
  <g transform="translate(90,25)">
    <path d="M-3,0 L-8,5 L-3,10" fill="none" stroke="#ffffff" stroke-width="2" stroke-linecap="round"/>
    <path d="M3,0 L8,5 L3,10" fill="none" stroke="#ffffff" stroke-width="2" stroke-linecap="round"/>
  </g>
</svg>